#!OML:ASF F:\VICON\USERDATA\INSTALL\rory3\rory3.ASF
:FULLY-SPECIFIED
:DEGREES
1526
root -3.62973 17.9126 -0.229523 8.18844 72.0694 -4.23723
lowerback 7.9487 0.729651 -0.46089
upperback 4.09317 1.02303 -0.532294
thorax -0.226367 0.548503 -0.370494
lowerneck -5.31731 -14.2078 -13.1391
upperneck 22.9335 -18.5036 4.54935
head 9.83501 -9.22663 1.56667
rclavicle 1.2921e-015 -5.1684e-015
rhumerus 86.0131 41.2576 -17.6176
rradius 67.2449
rwrist 18.926
rhand -4.60055 17.472
rfingers 7.12502
rthumb 21.1772 -11.3913
lclavicle 1.2921e-015 -5.1684e-015
lhumerus -20.8084 23.3169 42.6932
lradius 52.007
lwrist -49.1159
lhand -13.4875 36.062
lfingers 7.12502
lthumb 12.6232 65.6606
rfemur -31.9373 -0.596201 23.2915
rtibia 33.1867
rfoot -12.2875 -9.99801
rtoes 13.3835
lfemur -15.6475 2.56673 -7.62896
ltibia 37.0198
lfoot -6.96453 -0.592147
ltoes -33.3266
1527
root -3.59408 17.9216 -0.18962 9.19624 71.7954 -3.38437
lowerback 7.79271 0.837426 -0.563367
upperback 4.04413 1.15768 -0.434321
thorax -0.194632 0.611911 -0.220764
lowerneck -5.0133 -14.3803 -13.2374
upperneck 22.5909 -18.797 4.72916
head 9.71501 -9.36499 1.626
rclavicle 8.84592e-015 1.98785e-014
rhumerus 88.8177 42.7404 -14.7036
rradius 66.8729
rwrist 20.7579
rhand -3.89641 17.8719
rfingers 7.12502
rthumb 21.8534 -10.9141
lclavicle 8.84592e-015 1.98785e-014
lhumerus -21.829 22.3264 42.0932
lradius 49.8732
lwrist -49.0601
lhand -12.8979 35.1701
lfingers 7.12502
lthumb 13.1916 64.7328
rfemur -32.045 -0.278653 23.0251
rtibia 33.2833
rfoot -12.4377 -9.8863
rtoes 13.5978
lfemur -15.7709 2.60409 -7.7795
ltibia 37.3827
lfoot -6.82172 -0.828835
ltoes -33.0776
1528
root -3.55908 17.9225 -0.15331 9.60898 71.5837 -3.05617
lowerback 7.72518 0.912628 -0.441441
upperback 4.0188 1.26495 -0.329061
thorax -0.183504 0.665333 -0.188287
lowerneck -4.42768 -14.5364 -13.9194
upperneck 22.1783 -19.1708 5.5365
head 9.66086 -9.53724 1.97357
rclavicle 1.28713e-014 1.68967e-015
rhumerus 91.2681 44.3035 -12.2185
rradius 66.5933
rwrist 22.4102
rhand -3.95855 18.2973
rfingers 7.12502
rthumb 21.7938 -10.4956
lclavicle 1.28713e-014 1.68967e-015
lhumerus -22.8759 21.4469 41.6209
lradius 48.0634
lwrist -48.7363
lhand -12.2581 34.5081
lfingers 7.12502
lthumb 13.8082 64.0298
rfemur -32.0491 -0.0341951 22.9569
rtibia 33.3838
rfoot -12.6125 -9.82129
rtoes 13.8512
lfemur -15.8674 2.71267 -7.758
ltibia 37.7427
lfoot -6.58615 -1.05085
ltoes -32.9313
1529
root -3.52616 17.9211 -0.120794 9.5536 71.4788 -3.02413
lowerback 7.87727 0.914308 -0.157509
upperback 4.07628 1.28881 -0.222377
thorax -0.204482 0.68115 -0.2419
lowerneck -4.26481 -14.595 -14.9855
upperneck 22.1029 -19.423 6.72069
head 9.88045 -9.63387 2.46936
rclavicle -4.01048e-014 -2.16675e-014
rhumerus 93.5153 45.8845 -10.0276
rradius 66.4357
rwrist 23.8188
rhand -4.17408 18.4411
rfingers 7.12502
rthumb 21.5868 -10.3758
lclavicle -4.01048e-014 -2.16675e-014
lhumerus -23.9519 20.8436 41.3046
lradius 46.5964
lwrist -48.2792
lhand -11.5103 34.2145
lfingers 7.12502
lthumb 14.5289 63.6858
rfemur -31.8674 0.0985747 23.0086
rtibia 33.545
rfoot -12.8326 -9.77709
rtoes 13.5644
lfemur -15.7959 2.60917 -7.64751
ltibia 38.0215
lfoot -6.16953 -1.22755
ltoes -32.8047
1530
root -3.4919 17.9178 -0.0877635 10.0301 71.3451 -2.47045
lowerback 7.91232 0.908759 -0.133183
upperback 4.13599 1.28581 -0.122463
thorax -0.163958 0.67978 -0.152525
lowerneck -4.39579 -14.6233 -15.4032
upperneck 22.0815 -19.4921 7.1199
head 9.9963 -9.65731 2.63257
rclavicle -4.7671e-014 1.55549e-014
rhumerus 95.6587 47.5832 -8.07543
rradius 66.1718
rwrist 25.1336
rhand -3.76696 18.3807
rfingers 7.12502
rthumb 21.9777 -10.3907
lclavicle -4.7671e-014 1.55549e-014
lhumerus -25.1515 20.7154 41.1526
lradius 45.438
lwrist -47.9045
lhand -10.8012 34.2314
lfingers 7.12502
lthumb 15.212 63.6522
rfemur -31.7711 0.180874 22.8664
rtibia 33.77
rfoot -13.0041 -9.6167
rtoes 12.8889
lfemur -15.7846 2.56026 -7.78959
ltibia 38.2401
lfoot -5.63245 -1.37672
ltoes -33.217
